<svg width="406" height="114" viewBox="0 0 406 114" fill="none" xmlns="http://www.w3.org/2000/svg">
<path d="M9.22656 36.9999L16.4922 2.73431H24.0391C26.2734 2.73431 28.125 3.07025 29.5938 3.74213C31.0625 4.414 32.1562 5.39838 32.875 6.69525C33.5938 7.9765 33.9531 9.53119 33.9531 11.3593C33.9531 13.1093 33.6641 14.6874 33.0859 16.0937C32.5234 17.4999 31.6641 18.7031 30.5078 19.7031C29.3516 20.7031 27.8984 21.4765 26.1484 22.0234C24.4141 22.5546 22.375 22.8203 20.0312 22.8203H14.6406L11.6406 36.9999H9.22656ZM15.1094 20.7109H20.3828C22.8828 20.7109 24.9531 20.3437 26.5938 19.6093C28.2344 18.8593 29.4609 17.7968 30.2734 16.4218C31.0859 15.0312 31.4922 13.3671 31.4922 11.4296C31.4922 9.13275 30.8203 7.46869 29.4766 6.43744C28.1484 5.39056 26.2109 4.86713 23.6641 4.86713H18.4609L15.1094 20.7109ZM43.1078 37.4218C41.1391 37.4218 39.4828 37.0156 38.1391 36.2031C36.7953 35.3906 35.7797 34.2499 35.0922 32.7812C34.4203 31.3124 34.0844 29.6093 34.0844 27.6718C34.0844 25.8124 34.2797 24.0546 34.6703 22.3984C35.0766 20.7421 35.6547 19.2265 36.4047 17.8515C37.1703 16.4609 38.0844 15.2656 39.1469 14.2656C40.225 13.2499 41.4359 12.4687 42.7797 11.9218C44.1391 11.3593 45.6 11.0781 47.1625 11.0781C49.1 11.0781 50.7328 11.4921 52.0609 12.3203C53.3891 13.1484 54.3969 14.2968 55.0844 15.7656C55.7875 17.2187 56.1391 18.9062 56.1391 20.8281C56.1391 22.5468 55.9516 24.2187 55.5766 25.8437C55.2172 27.4687 54.6781 28.9843 53.9594 30.3906C53.2406 31.7968 52.35 33.0234 51.2875 34.0703C50.2406 35.1171 49.0297 35.9374 47.6547 36.5312C46.2953 37.1249 44.7797 37.4218 43.1078 37.4218ZM43.3188 35.3828C44.5688 35.3828 45.725 35.1484 46.7875 34.6796C47.8656 34.1953 48.8266 33.5156 49.6703 32.6406C50.5297 31.7656 51.2563 30.7187 51.85 29.4999C52.4594 28.2812 52.9203 26.9218 53.2328 25.4218C53.5453 23.9218 53.7016 22.3203 53.7016 20.6171C53.7016 19.2421 53.4672 17.9921 52.9984 16.8671C52.5297 15.7265 51.8109 14.8203 50.8422 14.1484C49.8891 13.4765 48.6547 13.1406 47.1391 13.1406C45.8891 13.1406 44.725 13.3671 43.6469 13.8203C42.5688 14.2734 41.5844 14.9296 40.6938 15.789C39.8188 16.6484 39.0688 17.6796 38.4438 18.8828C37.8188 20.0859 37.3344 21.4374 36.9906 22.9374C36.6625 24.4218 36.4984 26.0234 36.4984 27.7421C36.4984 30.1015 37.0688 31.9687 38.2094 33.3437C39.3656 34.7031 41.0688 35.3828 43.3188 35.3828ZM65.7625 37.4687C64.2156 37.4687 62.9109 37.1171 61.8484 36.414C60.7859 35.6953 59.9813 34.6718 59.4344 33.3437C58.9031 32.0156 58.6375 30.414 58.6375 28.539C58.6375 26.8671 58.8172 25.1953 59.1766 23.5234C59.5359 21.8515 60.0594 20.2656 60.7469 18.7656C61.45 17.2656 62.3172 15.9374 63.3484 14.7812C64.3953 13.6249 65.5984 12.7187 66.9578 12.0624C68.3328 11.3906 69.8719 11.0546 71.575 11.0546C73.0125 11.0546 74.2156 11.3359 75.1844 11.8984C76.1531 12.4453 76.9188 13.1484 77.4813 14.0078C78.0594 14.8515 78.4578 15.7265 78.6766 16.6328H78.8172C78.9266 15.914 79.0359 15.1953 79.1453 14.4765C79.2703 13.7421 79.4031 13.0234 79.5438 12.3203C79.7 11.6015 79.8484 10.8906 79.9891 10.1874L82.0516 0.531189H84.3953L76.6609 36.9999H74.6922L75.7469 30.9765H75.6063C74.9031 32.039 74.0672 33.0703 73.0984 34.0703C72.1297 35.0546 71.0281 35.8671 69.7938 36.5078C68.575 37.1484 67.2313 37.4687 65.7625 37.4687ZM66.3719 35.4062C67.2625 35.4062 68.1609 35.2187 69.0672 34.8437C69.9734 34.4531 70.8406 33.914 71.6688 33.2265C72.5125 32.5234 73.2938 31.6874 74.0125 30.7187C74.7313 29.7499 75.3641 28.6796 75.9109 27.5078C76.4578 26.3359 76.8797 25.0937 77.1766 23.7812C77.4891 22.4687 77.6453 21.1093 77.6453 19.7031C77.6453 17.5624 77.1063 15.9296 76.0281 14.8046C74.9656 13.6796 73.5047 13.1171 71.6453 13.1171C70.2703 13.1171 69.0281 13.414 67.9188 14.0078C66.8094 14.5859 65.825 15.3906 64.9656 16.4218C64.1219 17.4531 63.4109 18.6249 62.8328 19.9374C62.2547 21.2499 61.8172 22.6484 61.5203 24.1328C61.2234 25.6171 61.075 27.0937 61.075 28.5624C61.075 30.7499 61.5125 32.4374 62.3875 33.6249C63.2781 34.8124 64.6063 35.4062 66.3719 35.4062ZM89.0266 37.4687C87.4016 37.4687 85.9797 37.289 84.7609 36.9296C83.5578 36.5703 82.5656 36.1796 81.7844 35.7578V33.3906C82.675 33.9218 83.7531 34.3984 85.0188 34.8203C86.2844 35.2265 87.6125 35.4296 89.0031 35.4296C90.5813 35.4296 91.8625 35.2109 92.8469 34.7734C93.8313 34.3359 94.5578 33.7343 95.0266 32.9687C95.5109 32.1874 95.7531 31.289 95.7531 30.2734C95.7531 29.3671 95.5422 28.6093 95.1203 27.9999C94.6984 27.3906 94.1047 26.8437 93.3391 26.3593C92.5891 25.8593 91.7219 25.3359 90.7375 24.789C89.6281 24.164 88.6359 23.5468 87.7609 22.9374C86.8859 22.3281 86.1984 21.6328 85.6984 20.8515C85.1984 20.0546 84.9484 19.0859 84.9484 17.9453C84.9484 16.414 85.3156 15.1406 86.05 14.1249C86.8 13.1093 87.8156 12.3437 89.0969 11.8281C90.3781 11.2968 91.8234 11.0312 93.4328 11.0312C94.9484 11.0312 96.3156 11.1874 97.5344 11.4999C98.7531 11.8124 99.8078 12.1796 100.698 12.6015L99.925 14.6171C99.1125 14.2109 98.1438 13.8593 97.0188 13.5624C95.9094 13.2656 94.7063 13.1171 93.4094 13.1171C91.6438 13.1171 90.1828 13.4999 89.0266 14.2656C87.8859 15.0312 87.3156 16.2109 87.3156 17.8046C87.3156 18.6015 87.5109 19.289 87.9016 19.8671C88.3078 20.4296 88.8781 20.9453 89.6125 21.414C90.3625 21.8828 91.2375 22.3906 92.2375 22.9374C93.2844 23.5312 94.2609 24.1328 95.1672 24.7421C96.0734 25.3515 96.8 26.0781 97.3469 26.9218C97.9094 27.7499 98.1906 28.8124 98.1906 30.1093C98.1906 31.5624 97.8469 32.8437 97.1594 33.9531C96.4875 35.0624 95.4641 35.9296 94.0891 36.5546C92.7297 37.164 91.0422 37.4687 89.0266 37.4687ZM107.111 37.4687C105.486 37.4687 104.22 37.0703 103.314 36.2734C102.408 35.4765 101.955 34.2578 101.955 32.6171C101.955 32.1796 101.986 31.7031 102.048 31.1874C102.111 30.6718 102.205 30.1406 102.33 29.5937L105.728 13.4687H101.931L102.236 12.0859L106.173 11.3124L108.283 5.38275H109.853L108.541 11.5234H115.853L115.431 13.4687H108.119L104.72 29.5234C104.611 30.0234 104.517 30.5156 104.439 30.9999C104.377 31.4843 104.345 31.9374 104.345 32.3593C104.345 33.2968 104.58 34.0468 105.048 34.6093C105.517 35.1562 106.298 35.4296 107.392 35.4296C108.095 35.4296 108.728 35.3749 109.291 35.2656C109.869 35.1562 110.431 35.0078 110.978 34.8203V36.7656C110.509 36.9374 109.939 37.0937 109.267 37.2343C108.611 37.3906 107.892 37.4687 107.111 37.4687ZM113.758 36.9999L119.148 11.5234H121.516L116.125 36.9999H113.758ZM121.797 5.96869C121.328 5.96869 120.945 5.84369 120.648 5.59369C120.367 5.32806 120.227 4.95306 120.227 4.46869C120.227 4.07806 120.297 3.70306 120.438 3.34369C120.594 2.98431 120.82 2.69525 121.117 2.4765C121.414 2.24213 121.773 2.12494 122.195 2.12494C122.711 2.12494 123.086 2.26556 123.32 2.54681C123.555 2.81244 123.672 3.15619 123.672 3.57806C123.672 4.21869 123.492 4.78119 123.133 5.26556C122.773 5.73431 122.328 5.96869 121.797 5.96869ZM132.616 37.4687C130.662 37.4687 128.991 37.0703 127.6 36.2734C126.209 35.4609 125.139 34.3281 124.389 32.8749C123.655 31.4218 123.287 29.7187 123.287 27.7656C123.287 25.9843 123.475 24.2656 123.85 22.6093C124.241 20.9531 124.811 19.4218 125.561 18.0156C126.311 16.6093 127.225 15.3906 128.303 14.3593C129.397 13.3124 130.647 12.4999 132.053 11.9218C133.475 11.3281 135.03 11.0312 136.717 11.0312C137.811 11.0312 138.889 11.1328 139.952 11.3359C141.03 11.539 141.975 11.8281 142.787 12.2031L142.108 14.289C141.373 13.9296 140.522 13.6484 139.553 13.4453C138.6 13.2265 137.655 13.1171 136.717 13.1171C135.045 13.1171 133.53 13.4999 132.17 14.2656C130.811 15.0156 129.647 16.0624 128.678 17.4062C127.725 18.7499 126.991 20.3046 126.475 22.0703C125.959 23.8203 125.702 25.6953 125.702 27.6953C125.702 29.1796 125.967 30.5078 126.498 31.6796C127.045 32.8359 127.85 33.7499 128.912 34.4218C129.975 35.0781 131.272 35.4062 132.803 35.4062C133.944 35.4062 135.006 35.2734 135.991 35.0078C136.975 34.7265 137.959 34.3593 138.944 33.9062V36.039C138.131 36.4453 137.202 36.7812 136.155 37.0468C135.108 37.3281 133.928 37.4687 132.616 37.4687ZM135.428 7.914C135.178 7.19525 134.834 6.40619 134.397 5.54681C133.959 4.67181 133.498 3.81244 133.014 2.96869C132.53 2.12494 132.069 1.38275 131.631 0.742126L131.678 0.320251H133.178C133.616 0.820251 134.045 1.37494 134.467 1.98431C134.889 2.59369 135.295 3.21869 135.686 3.85931C136.092 4.49994 136.459 5.11713 136.787 5.71088C137.678 4.82025 138.647 3.89056 139.694 2.92181C140.741 1.93744 141.741 1.07025 142.694 0.320251H144.428L144.381 0.742126C143.741 1.33588 142.983 2.06244 142.108 2.92181C141.248 3.78119 140.405 4.65619 139.577 5.54681C138.764 6.43744 138.108 7.2265 137.608 7.914H135.428ZM151.848 37.4687C150.177 37.4687 148.653 37.1171 147.278 36.414C145.919 35.7109 144.833 34.6406 144.02 33.2031C143.223 31.7656 142.825 29.9453 142.825 27.7421C142.825 25.5078 143.145 23.3906 143.786 21.3906C144.427 19.3906 145.325 17.6171 146.481 16.0703C147.637 14.5078 149.005 13.2812 150.583 12.3906C152.161 11.4843 153.895 11.0312 155.786 11.0312C157.817 11.0312 159.403 11.5468 160.544 12.5781C161.7 13.6093 162.278 14.9843 162.278 16.7031C162.278 18.1562 161.911 19.414 161.177 20.4765C160.458 21.539 159.411 22.414 158.036 23.1015C156.661 23.789 155.02 24.3046 153.114 24.6484C151.208 24.9921 149.075 25.164 146.716 25.164H145.403C145.356 25.4765 145.317 25.8671 145.286 26.3359C145.255 26.789 145.239 27.2343 145.239 27.6718C145.239 30.1562 145.856 32.0703 147.091 33.414C148.325 34.7421 150.052 35.4062 152.27 35.4062C153.583 35.4062 154.786 35.2343 155.88 34.8906C156.989 34.5312 158.012 34.1328 158.95 33.6953V35.8281C158.059 36.2812 157.012 36.6718 155.809 36.9999C154.606 37.3124 153.286 37.4687 151.848 37.4687ZM145.755 23.1249H147.325C149.716 23.1249 151.856 22.914 153.747 22.4921C155.653 22.0546 157.161 21.3749 158.27 20.4531C159.38 19.5312 159.934 18.3359 159.934 16.8671C159.934 15.7734 159.567 14.8749 158.833 14.1718C158.114 13.4531 157.028 13.0937 155.575 13.0937C154.231 13.0937 152.895 13.4843 151.567 14.2656C150.239 15.0468 149.059 16.1874 148.028 17.6874C146.997 19.1874 146.239 20.9999 145.755 23.1249ZM162.902 36.9999L168.292 11.5234H170.261L169.206 17.4531H169.347C169.878 16.5156 170.558 15.5546 171.386 14.5703C172.23 13.5859 173.23 12.7499 174.386 12.0624C175.558 11.3749 176.894 11.0312 178.394 11.0312C180.425 11.0312 181.886 11.6328 182.777 12.8359C183.683 14.039 184.136 15.6406 184.136 17.6406H184.23C184.792 16.6249 185.511 15.6093 186.386 14.5937C187.277 13.5781 188.323 12.7343 189.527 12.0624C190.73 11.3749 192.081 11.0312 193.581 11.0312C195.503 11.0312 196.988 11.5624 198.034 12.6249C199.097 13.6874 199.628 15.2421 199.628 17.289C199.628 17.8671 199.589 18.4531 199.511 19.0468C199.433 19.6406 199.323 20.2499 199.183 20.8749L195.784 36.9999H193.394L196.886 20.5937C197.027 19.9999 197.12 19.4531 197.167 18.9531C197.23 18.4531 197.261 17.9921 197.261 17.5703C197.261 16.0859 196.886 14.9765 196.136 14.2421C195.386 13.4921 194.323 13.1171 192.948 13.1171C191.902 13.1171 190.863 13.3984 189.831 13.9609C188.816 14.5234 187.863 15.3124 186.972 16.3281C186.081 17.3437 185.308 18.539 184.652 19.914C183.995 21.2734 183.495 22.7656 183.152 24.3906L180.48 36.9999H178.113L181.511 21.039C181.667 20.3515 181.777 19.7031 181.839 19.0937C181.902 18.4843 181.933 17.9687 181.933 17.5468C181.933 16.1562 181.573 15.0703 180.855 14.289C180.152 13.5078 179.113 13.1171 177.738 13.1171C176.691 13.1171 175.652 13.3984 174.62 13.9609C173.605 14.5078 172.652 15.2968 171.761 16.3281C170.87 17.3593 170.089 18.5781 169.417 19.9843C168.745 21.3749 168.23 22.9218 167.87 24.6249L165.269 36.9999H162.902ZM211.595 37.4218C209.627 37.4218 207.97 37.0156 206.627 36.2031C205.283 35.3906 204.267 34.2499 203.58 32.7812C202.908 31.3124 202.572 29.6093 202.572 27.6718C202.572 25.8124 202.767 24.0546 203.158 22.3984C203.564 20.7421 204.142 19.2265 204.892 17.8515C205.658 16.4609 206.572 15.2656 207.634 14.2656C208.712 13.2499 209.923 12.4687 211.267 11.9218C212.627 11.3593 214.087 11.0781 215.65 11.0781C217.587 11.0781 219.22 11.4921 220.548 12.3203C221.877 13.1484 222.884 14.2968 223.572 15.7656C224.275 17.2187 224.627 18.9062 224.627 20.8281C224.627 22.5468 224.439 24.2187 224.064 25.8437C223.705 27.4687 223.166 28.9843 222.447 30.3906C221.728 31.7968 220.837 33.0234 219.775 34.0703C218.728 35.1171 217.517 35.9374 216.142 36.5312C214.783 37.1249 213.267 37.4218 211.595 37.4218ZM211.806 35.3828C213.056 35.3828 214.212 35.1484 215.275 34.6796C216.353 34.1953 217.314 33.5156 218.158 32.6406C219.017 31.7656 219.744 30.7187 220.337 29.4999C220.947 28.2812 221.408 26.9218 221.72 25.4218C222.033 23.9218 222.189 22.3203 222.189 20.6171C222.189 19.2421 221.955 17.9921 221.486 16.8671C221.017 15.7265 220.298 14.8203 219.33 14.1484C218.377 13.4765 217.142 13.1406 215.627 13.1406C214.377 13.1406 213.212 13.3671 212.134 13.8203C211.056 14.2734 210.072 14.9296 209.181 15.789C208.306 16.6484 207.556 17.6796 206.931 18.8828C206.306 20.0859 205.822 21.4374 205.478 22.9374C205.15 24.4218 204.986 26.0234 204.986 27.7421C204.986 30.1015 205.556 31.9687 206.697 33.3437C207.853 34.7031 209.556 35.3828 211.806 35.3828ZM242.514 37.4687C240.889 37.4687 239.467 37.289 238.248 36.9296C237.045 36.5703 236.053 36.1796 235.272 35.7578V33.3906C236.163 33.9218 237.241 34.3984 238.506 34.8203C239.772 35.2265 241.1 35.4296 242.491 35.4296C244.069 35.4296 245.35 35.2109 246.334 34.7734C247.319 34.3359 248.045 33.7343 248.514 32.9687C248.998 32.1874 249.241 31.289 249.241 30.2734C249.241 29.3671 249.03 28.6093 248.608 27.9999C248.186 27.3906 247.592 26.8437 246.827 26.3593C246.077 25.8593 245.209 25.3359 244.225 24.789C243.116 24.164 242.123 23.5468 241.248 22.9374C240.373 22.3281 239.686 21.6328 239.186 20.8515C238.686 20.0546 238.436 19.0859 238.436 17.9453C238.436 16.414 238.803 15.1406 239.538 14.1249C240.288 13.1093 241.303 12.3437 242.584 11.8281C243.866 11.2968 245.311 11.0312 246.92 11.0312C248.436 11.0312 249.803 11.1874 251.022 11.4999C252.241 11.8124 253.295 12.1796 254.186 12.6015L253.413 14.6171C252.6 14.2109 251.631 13.8593 250.506 13.5624C249.397 13.2656 248.194 13.1171 246.897 13.1171C245.131 13.1171 243.67 13.4999 242.514 14.2656C241.373 15.0312 240.803 16.2109 240.803 17.8046C240.803 18.6015 240.998 19.289 241.389 19.8671C241.795 20.4296 242.366 20.9453 243.1 21.414C243.85 21.8828 244.725 22.3906 245.725 22.9374C246.772 23.5312 247.748 24.1328 248.655 24.7421C249.561 25.3515 250.288 26.0781 250.834 26.9218C251.397 27.7499 251.678 28.8124 251.678 30.1093C251.678 31.5624 251.334 32.8437 250.647 33.9531C249.975 35.0624 248.952 35.9296 247.577 36.5546C246.217 37.164 244.53 37.4687 242.514 37.4687ZM262.262 37.4687C260.794 37.4687 259.536 37.1093 258.489 36.3906C257.442 35.6718 256.645 34.6484 256.098 33.3203C255.552 31.9765 255.278 30.3828 255.278 28.539C255.278 26.8359 255.458 25.1484 255.817 23.4765C256.192 21.8046 256.731 20.2265 257.434 18.7421C258.153 17.2421 259.028 15.914 260.059 14.7578C261.091 13.6015 262.278 12.6953 263.622 12.039C264.966 11.3671 266.442 11.0312 268.052 11.0312C269.411 11.0312 270.544 11.3203 271.45 11.8984C272.356 12.4609 273.067 13.1718 273.583 14.0312C274.098 14.8906 274.473 15.7578 274.708 16.6328H274.872L276.231 11.5234H278.106L272.716 36.9999H270.794L271.848 31.0468H271.731C271.122 31.9999 270.341 32.9765 269.387 33.9765C268.45 34.9609 267.372 35.789 266.153 36.4609C264.95 37.1328 263.653 37.4687 262.262 37.4687ZM262.895 35.4062C264.239 35.4062 265.598 34.9218 266.973 33.9531C268.364 32.9687 269.606 31.6406 270.7 29.9687C271.794 28.2812 272.575 26.3828 273.044 24.2734C273.262 23.3203 273.411 22.4765 273.489 21.7421C273.583 21.0078 273.63 20.3281 273.63 19.7031C273.63 17.6406 273.145 16.0312 272.177 14.8749C271.208 13.7031 269.88 13.1171 268.192 13.1171C266.88 13.1171 265.677 13.4062 264.583 13.9843C263.489 14.5624 262.52 15.3593 261.677 16.3749C260.833 17.3906 260.114 18.5546 259.52 19.8671C258.942 21.1796 258.497 22.5781 258.184 24.0624C257.872 25.5468 257.716 27.0468 257.716 28.5624C257.716 30.7187 258.153 32.3984 259.028 33.6015C259.903 34.8046 261.192 35.4062 262.895 35.4062ZM278.589 36.9999L283.98 11.5234H285.948L284.917 17.4531H285.058C285.62 16.5468 286.323 15.6015 287.167 14.6171C288.011 13.6328 288.987 12.7968 290.097 12.1093C291.222 11.4218 292.48 11.0781 293.87 11.0781C294.37 11.0781 294.862 11.1171 295.347 11.1953C295.831 11.2578 296.277 11.3515 296.683 11.4765L296.167 13.6093C295.808 13.5156 295.417 13.4374 294.995 13.3749C294.589 13.3124 294.144 13.2812 293.659 13.2812C292.519 13.2812 291.409 13.5859 290.331 14.1953C289.253 14.8046 288.261 15.6406 287.355 16.7031C286.448 17.7656 285.667 18.9765 285.011 20.3359C284.37 21.6796 283.886 23.1015 283.558 24.6015L280.956 36.9999H278.589ZM302.369 37.4687C300.9 37.4687 299.642 37.1093 298.595 36.3906C297.548 35.6718 296.752 34.6484 296.205 33.3203C295.658 31.9765 295.384 30.3828 295.384 28.539C295.384 26.8359 295.564 25.1484 295.923 23.4765C296.298 21.8046 296.837 20.2265 297.541 18.7421C298.259 17.2421 299.134 15.914 300.166 14.7578C301.197 13.6015 302.384 12.6953 303.728 12.039C305.072 11.3671 306.548 11.0312 308.158 11.0312C309.517 11.0312 310.65 11.3203 311.556 11.8984C312.462 12.4609 313.173 13.1718 313.689 14.0312C314.205 14.8906 314.58 15.7578 314.814 16.6328H314.978L316.337 11.5234H318.212L312.822 36.9999H310.9L311.955 31.0468H311.837C311.228 31.9999 310.447 32.9765 309.494 33.9765C308.556 34.9609 307.478 35.789 306.259 36.4609C305.056 37.1328 303.759 37.4687 302.369 37.4687ZM303.002 35.4062C304.345 35.4062 305.705 34.9218 307.08 33.9531C308.47 32.9687 309.712 31.6406 310.806 29.9687C311.9 28.2812 312.681 26.3828 313.15 24.2734C313.369 23.3203 313.517 22.4765 313.595 21.7421C313.689 21.0078 313.736 20.3281 313.736 19.7031C313.736 17.6406 313.252 16.0312 312.283 14.8749C311.314 13.7031 309.986 13.1171 308.298 13.1171C306.986 13.1171 305.783 13.4062 304.689 13.9843C303.595 14.5624 302.627 15.3593 301.783 16.3749C300.939 17.3906 300.22 18.5546 299.627 19.8671C299.048 21.1796 298.603 22.5781 298.291 24.0624C297.978 25.5468 297.822 27.0468 297.822 28.5624C297.822 30.7187 298.259 32.3984 299.134 33.6015C300.009 34.8046 301.298 35.4062 303.002 35.4062ZM326.734 37.4687C325.188 37.4687 323.883 37.1171 322.82 36.414C321.758 35.6953 320.953 34.6718 320.406 33.3437C319.875 32.0156 319.609 30.414 319.609 28.539C319.609 26.8671 319.789 25.1953 320.148 23.5234C320.508 21.8515 321.031 20.2656 321.719 18.7656C322.422 17.2656 323.289 15.9374 324.32 14.7812C325.367 13.6249 326.57 12.7187 327.93 12.0624C329.305 11.3906 330.844 11.0546 332.547 11.0546C333.984 11.0546 335.188 11.3359 336.156 11.8984C337.125 12.4453 337.891 13.1484 338.453 14.0078C339.031 14.8515 339.43 15.7265 339.648 16.6328H339.789C339.898 15.914 340.008 15.1953 340.117 14.4765C340.242 13.7421 340.375 13.0234 340.516 12.3203C340.672 11.6015 340.82 10.8906 340.961 10.1874L343.023 0.531189H345.367L337.633 36.9999H335.664L336.719 30.9765H336.578C335.875 32.039 335.039 33.0703 334.07 34.0703C333.102 35.0546 332 35.8671 330.766 36.5078C329.547 37.1484 328.203 37.4687 326.734 37.4687ZM327.344 35.4062C328.234 35.4062 329.133 35.2187 330.039 34.8437C330.945 34.4531 331.812 33.914 332.641 33.2265C333.484 32.5234 334.266 31.6874 334.984 30.7187C335.703 29.7499 336.336 28.6796 336.883 27.5078C337.43 26.3359 337.852 25.0937 338.148 23.7812C338.461 22.4687 338.617 21.1093 338.617 19.7031C338.617 17.5624 338.078 15.9296 337 14.8046C335.938 13.6796 334.477 13.1171 332.617 13.1171C331.242 13.1171 330 13.414 328.891 14.0078C327.781 14.5859 326.797 15.3906 325.938 16.4218C325.094 17.4531 324.383 18.6249 323.805 19.9374C323.227 21.2499 322.789 22.6484 322.492 24.1328C322.195 25.6171 322.047 27.0937 322.047 28.5624C322.047 30.7499 322.484 32.4374 323.359 33.6249C324.25 34.8124 325.578 35.4062 327.344 35.4062ZM343.694 36.9999L349.108 11.4765H351.17L350.139 17.4062H350.209C350.772 16.4687 351.514 15.5078 352.436 14.5234C353.358 13.539 354.452 12.7031 355.717 12.0156C356.998 11.3281 358.428 10.9843 360.006 10.9843C361.397 10.9843 362.577 11.2265 363.545 11.7109C364.53 12.1953 365.272 12.9062 365.772 13.8437C366.288 14.7812 366.545 15.9296 366.545 17.289C366.545 17.8671 366.498 18.4687 366.405 19.0937C366.327 19.7187 366.225 20.3203 366.1 20.8984L362.678 36.9999H360.194L363.686 20.5703C363.811 19.9765 363.905 19.4374 363.967 18.9531C364.03 18.4531 364.061 17.9999 364.061 17.5937C364.061 16.0937 363.663 14.9843 362.866 14.2656C362.069 13.5312 360.936 13.164 359.467 13.164C357.952 13.164 356.467 13.6406 355.014 14.5937C353.577 15.5468 352.303 16.8828 351.194 18.6015C350.084 20.3203 349.288 22.3281 348.803 24.6249L346.155 36.9999H343.694ZM363.208 48.5312C362.708 48.5312 362.2 48.4765 361.684 48.3671C361.153 48.2734 360.723 48.164 360.395 48.039V45.9296C360.786 46.1015 361.231 46.2265 361.731 46.3046C362.231 46.3984 362.7 46.4453 363.138 46.4453C363.919 46.4453 364.591 46.2656 365.153 45.9062C365.716 45.5468 366.184 45.0078 366.559 44.289C366.919 43.5703 367.208 42.7031 367.427 41.6874L373.802 11.5234H376.145L369.723 41.9687C369.427 43.3749 369.005 44.5624 368.458 45.5312C367.911 46.5156 367.216 47.2578 366.372 47.7578C365.513 48.2734 364.458 48.5312 363.208 48.5312ZM376.427 5.96869C375.973 5.96869 375.598 5.84369 375.302 5.59369C375.02 5.32806 374.88 4.95306 374.88 4.46869C374.88 4.07806 374.95 3.70306 375.091 3.34369C375.247 2.98431 375.473 2.69525 375.77 2.4765C376.067 2.24213 376.427 2.12494 376.848 2.12494C377.364 2.12494 377.739 2.26556 377.973 2.54681C378.208 2.81244 378.325 3.15619 378.325 3.57806C378.325 4.21869 378.138 4.78119 377.763 5.26556C377.403 5.73431 376.958 5.96869 376.427 5.96869ZM384.503 37.4687C383.159 37.4687 382.003 37.2343 381.034 36.7656C380.066 36.2812 379.323 35.5703 378.808 34.6328C378.308 33.6953 378.058 32.5468 378.058 31.1874C378.058 30.6406 378.097 30.0703 378.175 29.4765C378.269 28.8828 378.37 28.2734 378.48 27.6484L381.902 11.5234H384.292L380.8 27.9296C380.675 28.5234 380.581 29.0703 380.519 29.5703C380.456 30.0546 380.425 30.4999 380.425 30.9062C380.425 32.4218 380.823 33.5546 381.62 34.3046C382.417 35.039 383.573 35.4062 385.089 35.4062C386.605 35.4062 388.089 34.9296 389.542 33.9765C391.011 33.0078 392.3 31.664 393.409 29.9453C394.534 28.2109 395.339 26.1874 395.823 23.8749L398.448 11.5234H400.792L395.378 36.9999H393.409L394.464 31.0468H394.323C393.761 31.9687 393.011 32.9296 392.073 33.9296C391.152 34.914 390.058 35.7499 388.792 36.4374C387.542 37.1249 386.112 37.4687 384.503 37.4687ZM397.947 43.1874C398.65 41.7499 399.298 40.3515 399.892 38.9921C400.47 37.6484 401.009 36.3437 401.509 35.0781C402.009 33.8124 402.462 32.5937 402.869 31.4218H405.4L405.494 31.9843C405.025 33.1562 404.486 34.3906 403.877 35.6874C403.267 36.9843 402.611 38.2734 401.908 39.5546C401.22 40.8515 400.525 42.0624 399.822 43.1874H397.947ZM3.27344 113.531C2.77344 113.531 2.26562 113.477 1.75 113.367C1.21875 113.273 0.789062 113.164 0.460938 113.039V110.93C0.851562 111.102 1.29688 111.227 1.79688 111.305C2.29688 111.398 2.76562 111.445 3.20312 111.445C3.98438 111.445 4.65625 111.266 5.21875 110.906C5.78125 110.547 6.25 110.008 6.625 109.289C6.98438 108.57 7.27344 107.703 7.49219 106.687L13.8672 76.5234H16.2109L9.78906 106.969C9.49219 108.375 9.07031 109.562 8.52344 110.531C7.97656 111.516 7.28125 112.258 6.4375 112.758C5.57812 113.273 4.52344 113.531 3.27344 113.531ZM16.4922 70.9687C16.0391 70.9687 15.6641 70.8437 15.3672 70.5937C15.0859 70.3281 14.9453 69.9531 14.9453 69.4687C14.9453 69.0781 15.0156 68.7031 15.1562 68.3437C15.3125 67.9843 15.5391 67.6953 15.8359 67.4765C16.1328 67.2421 16.4922 67.1249 16.9141 67.1249C17.4297 67.1249 17.8047 67.2656 18.0391 67.5468C18.2734 67.8124 18.3906 68.1562 18.3906 68.5781C18.3906 69.2187 18.2031 69.7812 17.8281 70.2656C17.4688 70.7343 17.0234 70.9687 16.4922 70.9687ZM24.85 102.469C23.3813 102.469 22.1234 102.109 21.0766 101.391C20.0297 100.672 19.2328 99.6484 18.6859 98.3203C18.1391 96.9765 17.8656 95.3828 17.8656 93.539C17.8656 91.8359 18.0453 90.1484 18.4047 88.4765C18.7797 86.8046 19.3188 85.2265 20.0219 83.7421C20.7406 82.2421 21.6156 80.914 22.6469 79.7578C23.6781 78.6015 24.8656 77.6953 26.2094 77.039C27.5531 76.3671 29.0297 76.0312 30.6391 76.0312C31.9984 76.0312 33.1313 76.3203 34.0375 76.8984C34.9438 77.4609 35.6547 78.1718 36.1703 79.0312C36.6859 79.8906 37.0609 80.7578 37.2953 81.6328H37.4594L38.8188 76.5234H40.6938L35.3031 102H33.3813L34.4359 96.0468H34.3188C33.7094 96.9999 32.9281 97.9765 31.975 98.9765C31.0375 99.9609 29.9594 100.789 28.7406 101.461C27.5375 102.133 26.2406 102.469 24.85 102.469ZM25.4828 100.406C26.8266 100.406 28.1859 99.9218 29.5609 98.9531C30.9516 97.9687 32.1938 96.6406 33.2875 94.9687C34.3813 93.2812 35.1625 91.3828 35.6313 89.2734C35.85 88.3203 35.9984 87.4765 36.0766 86.7421C36.1703 86.0078 36.2172 85.3281 36.2172 84.7031C36.2172 82.6406 35.7328 81.0312 34.7641 79.8749C33.7953 78.7031 32.4672 78.1171 30.7797 78.1171C29.4672 78.1171 28.2641 78.4062 27.1703 78.9843C26.0766 79.5624 25.1078 80.3593 24.2641 81.3749C23.4203 82.3906 22.7016 83.5546 22.1078 84.8671C21.5297 86.1796 21.0844 87.5781 20.7719 89.0624C20.4594 90.5468 20.3031 92.0468 20.3031 93.5624C20.3031 95.7187 20.7406 97.3984 21.6156 98.6015C22.4906 99.8046 23.7797 100.406 25.4828 100.406ZM51.5594 102.469C49.6063 102.469 47.9344 102.07 46.5438 101.273C45.1531 100.461 44.0828 99.3281 43.3328 97.8749C42.5984 96.4218 42.2313 94.7187 42.2313 92.7656C42.2313 90.9843 42.4188 89.2656 42.7938 87.6093C43.1844 85.9531 43.7547 84.4218 44.5047 83.0156C45.2547 81.6093 46.1688 80.3906 47.2469 79.3593C48.3406 78.3124 49.5906 77.4999 50.9969 76.9218C52.4188 76.3281 53.9734 76.0312 55.6609 76.0312C56.7547 76.0312 57.8328 76.1328 58.8953 76.3359C59.9734 76.539 60.9188 76.8281 61.7313 77.2031L61.0516 79.289C60.3172 78.9296 59.4656 78.6484 58.4969 78.4453C57.5438 78.2265 56.5984 78.1171 55.6609 78.1171C53.9891 78.1171 52.4734 78.4999 51.1141 79.2656C49.7547 80.0156 48.5906 81.0624 47.6219 82.4062C46.6688 83.7499 45.9344 85.3046 45.4188 87.0703C44.9031 88.8203 44.6453 90.6953 44.6453 92.6953C44.6453 94.1796 44.9109 95.5078 45.4422 96.6796C45.9891 97.8359 46.7938 98.7499 47.8563 99.4218C48.9188 100.078 50.2156 100.406 51.7469 100.406C52.8875 100.406 53.95 100.273 54.9344 100.008C55.9188 99.7265 56.9031 99.3593 57.8875 98.9062V101.039C57.075 101.445 56.1453 101.781 55.0984 102.047C54.0516 102.328 52.8719 102.469 51.5594 102.469ZM54.3719 72.914C54.1219 72.1953 53.7781 71.4062 53.3406 70.5468C52.9031 69.6718 52.4422 68.8124 51.9578 67.9687C51.4734 67.1249 51.0125 66.3828 50.575 65.7421L50.6219 65.3203H52.1219C52.5594 65.8203 52.9891 66.3749 53.4109 66.9843C53.8328 67.5937 54.2391 68.2187 54.6297 68.8593C55.0359 69.4999 55.4031 70.1171 55.7313 70.7109C56.6219 69.8203 57.5906 68.8906 58.6375 67.9218C59.6844 66.9374 60.6844 66.0703 61.6375 65.3203H63.3719L63.325 65.7421C62.6844 66.3359 61.9266 67.0624 61.0516 67.9218C60.1922 68.7812 59.3484 69.6562 58.5203 70.5468C57.7078 71.4374 57.0516 72.2265 56.5516 72.914H54.3719ZM68.425 102.469C66.9562 102.469 65.6984 102.109 64.6516 101.391C63.6047 100.672 62.8078 99.6484 62.2609 98.3203C61.7141 96.9765 61.4406 95.3828 61.4406 93.539C61.4406 91.8359 61.6203 90.1484 61.9797 88.4765C62.3547 86.8046 62.8937 85.2265 63.5969 83.7421C64.3156 82.2421 65.1906 80.914 66.2219 79.7578C67.2531 78.6015 68.4406 77.6953 69.7844 77.039C71.1281 76.3671 72.6047 76.0312 74.2141 76.0312C75.5734 76.0312 76.7062 76.3203 77.6125 76.8984C78.5187 77.4609 79.2297 78.1718 79.7453 79.0312C80.2609 79.8906 80.6359 80.7578 80.8703 81.6328H81.0344L82.3937 76.5234H84.2687L78.8781 102H76.9562L78.0109 96.0468H77.8937C77.2844 96.9999 76.5031 97.9765 75.55 98.9765C74.6125 99.9609 73.5344 100.789 72.3156 101.461C71.1125 102.133 69.8156 102.469 68.425 102.469ZM69.0578 100.406C70.4016 100.406 71.7609 99.9218 73.1359 98.9531C74.5266 97.9687 75.7687 96.6406 76.8625 94.9687C77.9562 93.2812 78.7375 91.3828 79.2062 89.2734C79.425 88.3203 79.5734 87.4765 79.6516 86.7421C79.7453 86.0078 79.7922 85.3281 79.7922 84.7031C79.7922 82.6406 79.3078 81.0312 78.3391 79.8749C77.3703 78.7031 76.0422 78.1171 74.3547 78.1171C73.0422 78.1171 71.8391 78.4062 70.7453 78.9843C69.6516 79.5624 68.6828 80.3593 67.8391 81.3749C66.9953 82.3906 66.2766 83.5546 65.6828 84.8671C65.1047 86.1796 64.6594 87.5781 64.3469 89.0624C64.0344 90.5468 63.8781 92.0468 63.8781 93.5624C63.8781 95.7187 64.3156 97.3984 65.1906 98.6015C66.0656 99.8046 67.3547 100.406 69.0578 100.406ZM84.7516 102L90.1422 76.5234H92.1109L91.0563 82.4531H91.1969C91.7281 81.5156 92.4078 80.5546 93.2359 79.5703C94.0797 78.5859 95.0797 77.7499 96.2359 77.0624C97.4078 76.3749 98.7438 76.0312 100.244 76.0312C102.275 76.0312 103.736 76.6328 104.627 77.8359C105.533 79.039 105.986 80.6406 105.986 82.6406H106.08C106.642 81.6249 107.361 80.6093 108.236 79.5937C109.127 78.5781 110.173 77.7343 111.377 77.0624C112.58 76.3749 113.931 76.0312 115.431 76.0312C117.353 76.0312 118.838 76.5624 119.884 77.6249C120.947 78.6874 121.478 80.2421 121.478 82.289C121.478 82.8671 121.439 83.4531 121.361 84.0468C121.283 84.6406 121.173 85.2499 121.033 85.8749L117.634 102H115.244L118.736 85.5937C118.877 84.9999 118.97 84.4531 119.017 83.9531C119.08 83.4531 119.111 82.9921 119.111 82.5703C119.111 81.0859 118.736 79.9765 117.986 79.2421C117.236 78.4921 116.173 78.1171 114.798 78.1171C113.752 78.1171 112.713 78.3984 111.681 78.9609C110.666 79.5234 109.713 80.3124 108.822 81.3281C107.931 82.3437 107.158 83.539 106.502 84.914C105.845 86.2734 105.345 87.7656 105.002 89.3906L102.33 102H99.9625L103.361 86.039C103.517 85.3515 103.627 84.7031 103.689 84.0937C103.752 83.4843 103.783 82.9687 103.783 82.5468C103.783 81.1562 103.423 80.0703 102.705 79.289C102.002 78.5078 100.963 78.1171 99.5875 78.1171C98.5406 78.1171 97.5016 78.3984 96.4703 78.9609C95.4547 79.5078 94.5016 80.2968 93.6109 81.3281C92.7203 82.3593 91.9391 83.5781 91.2672 84.9843C90.5953 86.3749 90.0797 87.9218 89.7203 89.6249L87.1188 102H84.7516ZM133.445 102.422C131.477 102.422 129.82 102.016 128.477 101.203C127.133 100.391 126.117 99.2499 125.43 97.7812C124.758 96.3124 124.422 94.6093 124.422 92.6718C124.422 90.8124 124.617 89.0546 125.008 87.3984C125.414 85.7421 125.992 84.2265 126.742 82.8515C127.508 81.4609 128.422 80.2656 129.484 79.2656C130.562 78.2499 131.773 77.4687 133.117 76.9218C134.477 76.3593 135.938 76.0781 137.5 76.0781C139.438 76.0781 141.07 76.4921 142.398 77.3203C143.727 78.1484 144.734 79.2968 145.422 80.7656C146.125 82.2187 146.477 83.9062 146.477 85.8281C146.477 87.5468 146.289 89.2187 145.914 90.8437C145.555 92.4687 145.016 93.9843 144.297 95.3906C143.578 96.7968 142.688 98.0234 141.625 99.0703C140.578 100.117 139.367 100.937 137.992 101.531C136.633 102.125 135.117 102.422 133.445 102.422ZM133.656 100.383C134.906 100.383 136.062 100.148 137.125 99.6796C138.203 99.1953 139.164 98.5156 140.008 97.6406C140.867 96.7656 141.594 95.7187 142.188 94.4999C142.797 93.2812 143.258 91.9218 143.57 90.4218C143.883 88.9218 144.039 87.3203 144.039 85.6171C144.039 84.2421 143.805 82.9921 143.336 81.8671C142.867 80.7265 142.148 79.8203 141.18 79.1484C140.227 78.4765 138.992 78.1406 137.477 78.1406C136.227 78.1406 135.062 78.3671 133.984 78.8203C132.906 79.2734 131.922 79.9296 131.031 80.789C130.156 81.6484 129.406 82.6796 128.781 83.8828C128.156 85.0859 127.672 86.4374 127.328 87.9374C127 89.4218 126.836 91.0234 126.836 92.7421C126.836 95.1015 127.406 96.9687 128.547 98.3437C129.703 99.7031 131.406 100.383 133.656 100.383ZM164.364 102.469C162.739 102.469 161.473 102.07 160.567 101.273C159.661 100.477 159.208 99.2578 159.208 97.6171C159.208 97.1796 159.239 96.7031 159.302 96.1874C159.364 95.6718 159.458 95.1406 159.583 94.5937L162.981 78.4687H159.184L159.489 77.0859L163.427 76.3124L165.536 70.3828H167.106L165.794 76.5234H173.106L172.684 78.4687H165.372L161.973 94.5234C161.864 95.0234 161.77 95.5156 161.692 95.9999C161.63 96.4843 161.598 96.9374 161.598 97.3593C161.598 98.2968 161.833 99.0468 162.302 99.6093C162.77 100.156 163.552 100.43 164.645 100.43C165.348 100.43 165.981 100.375 166.544 100.266C167.122 100.156 167.684 100.008 168.231 99.8203V101.766C167.762 101.937 167.192 102.094 166.52 102.234C165.864 102.391 165.145 102.469 164.364 102.469ZM171.011 102L176.402 76.5234H178.769L173.378 102H171.011ZM179.05 70.9687C178.581 70.9687 178.198 70.8437 177.902 70.5937C177.62 70.3281 177.48 69.9531 177.48 69.4687C177.48 69.0781 177.55 68.7031 177.691 68.3437C177.847 67.9843 178.073 67.6953 178.37 67.4765C178.667 67.2421 179.027 67.1249 179.448 67.1249C179.964 67.1249 180.339 67.2656 180.573 67.5468C180.808 67.8124 180.925 68.1562 180.925 68.5781C180.925 69.2187 180.745 69.7812 180.386 70.2656C180.027 70.7343 179.581 70.9687 179.05 70.9687ZM179.486 102L184.877 76.5234H186.845L185.791 82.4531H185.931C186.462 81.5156 187.142 80.5546 187.97 79.5703C188.814 78.5859 189.814 77.7499 190.97 77.0624C192.142 76.3749 193.478 76.0312 194.978 76.0312C197.009 76.0312 198.47 76.6328 199.361 77.8359C200.267 79.039 200.72 80.6406 200.72 82.6406H200.814C201.377 81.6249 202.095 80.6093 202.97 79.5937C203.861 78.5781 204.908 77.7343 206.111 77.0624C207.314 76.3749 208.666 76.0312 210.166 76.0312C212.087 76.0312 213.572 76.5624 214.619 77.6249C215.681 78.6874 216.212 80.2421 216.212 82.289C216.212 82.8671 216.173 83.4531 216.095 84.0468C216.017 84.6406 215.908 85.2499 215.767 85.8749L212.369 102H209.978L213.47 85.5937C213.611 84.9999 213.705 84.4531 213.752 83.9531C213.814 83.4531 213.845 82.9921 213.845 82.5703C213.845 81.0859 213.47 79.9765 212.72 79.2421C211.97 78.4921 210.908 78.1171 209.533 78.1171C208.486 78.1171 207.447 78.3984 206.416 78.9609C205.4 79.5234 204.447 80.3124 203.556 81.3281C202.666 82.3437 201.892 83.539 201.236 84.914C200.58 86.2734 200.08 87.7656 199.736 89.3906L197.064 102H194.697L198.095 86.039C198.252 85.3515 198.361 84.7031 198.423 84.0937C198.486 83.4843 198.517 82.9687 198.517 82.5468C198.517 81.1562 198.158 80.0703 197.439 79.289C196.736 78.5078 195.697 78.1171 194.322 78.1171C193.275 78.1171 192.236 78.3984 191.205 78.9609C190.189 79.5078 189.236 80.2968 188.345 81.3281C187.455 82.3593 186.673 83.5781 186.002 84.9843C185.33 86.3749 184.814 87.9218 184.455 89.6249L181.853 102H179.486ZM224.336 102.469C222.711 102.469 221.289 102.289 220.07 101.93C218.867 101.57 217.875 101.18 217.094 100.758V98.3906C217.984 98.9218 219.062 99.3984 220.328 99.8203C221.594 100.227 222.922 100.43 224.312 100.43C225.891 100.43 227.172 100.211 228.156 99.7734C229.141 99.3359 229.867 98.7343 230.336 97.9687C230.82 97.1874 231.062 96.289 231.062 95.2734C231.062 94.3671 230.852 93.6093 230.43 92.9999C230.008 92.3906 229.414 91.8437 228.648 91.3593C227.898 90.8593 227.031 90.3359 226.047 89.789C224.938 89.164 223.945 88.5468 223.07 87.9374C222.195 87.3281 221.508 86.6328 221.008 85.8515C220.508 85.0546 220.258 84.0859 220.258 82.9453C220.258 81.414 220.625 80.1406 221.359 79.1249C222.109 78.1093 223.125 77.3437 224.406 76.8281C225.688 76.2968 227.133 76.0312 228.742 76.0312C230.258 76.0312 231.625 76.1874 232.844 76.4999C234.062 76.8124 235.117 77.1796 236.008 77.6015L235.234 79.6171C234.422 79.2109 233.453 78.8593 232.328 78.5624C231.219 78.2656 230.016 78.1171 228.719 78.1171C226.953 78.1171 225.492 78.4999 224.336 79.2656C223.195 80.0312 222.625 81.2109 222.625 82.8046C222.625 83.6015 222.82 84.289 223.211 84.8671C223.617 85.4296 224.188 85.9453 224.922 86.414C225.672 86.8828 226.547 87.3906 227.547 87.9374C228.594 88.5312 229.57 89.1328 230.477 89.7421C231.383 90.3515 232.109 91.0781 232.656 91.9218C233.219 92.7499 233.5 93.8124 233.5 95.1093C233.5 96.5624 233.156 97.8437 232.469 98.9531C231.797 100.062 230.773 100.93 229.398 101.555C228.039 102.164 226.352 102.469 224.336 102.469ZM236.163 102L243.873 65.5312H246.264L242.702 82.2421C242.436 83.539 242.178 84.7031 241.928 85.7343C241.678 86.7499 241.444 87.6796 241.225 88.5234C241.022 89.3515 240.819 90.1406 240.616 90.8906H240.686L255.592 76.5234H258.475L246.967 87.5624L254.116 102H251.491L245.209 89.0624L240.334 93.3515L238.553 102H236.163ZM255.864 102L261.255 76.5234H263.622L258.231 102H255.864ZM263.903 70.9687C263.434 70.9687 263.052 70.8437 262.755 70.5937C262.473 70.3281 262.333 69.9531 262.333 69.4687C262.333 69.0781 262.403 68.7031 262.544 68.3437C262.7 67.9843 262.927 67.6953 263.223 67.4765C263.52 67.2421 263.88 67.1249 264.302 67.1249C264.817 67.1249 265.192 67.2656 265.427 67.5468C265.661 67.8124 265.778 68.1562 265.778 68.5781C265.778 69.2187 265.598 69.7812 265.239 70.2656C264.88 70.7343 264.434 70.9687 263.903 70.9687ZM282.447 102.469C280.9 102.469 279.595 102.117 278.533 101.414C277.47 100.695 276.666 99.6718 276.119 98.3437C275.587 97.0156 275.322 95.414 275.322 93.539C275.322 91.8671 275.502 90.1953 275.861 88.5234C276.22 86.8515 276.744 85.2656 277.431 83.7656C278.134 82.2656 279.002 80.9374 280.033 79.7812C281.08 78.6249 282.283 77.7187 283.642 77.0624C285.017 76.3906 286.556 76.0546 288.259 76.0546C289.697 76.0546 290.9 76.3359 291.869 76.8984C292.837 77.4453 293.603 78.1484 294.166 79.0078C294.744 79.8515 295.142 80.7265 295.361 81.6328H295.502C295.611 80.914 295.72 80.1953 295.83 79.4765C295.955 78.7421 296.087 78.0234 296.228 77.3203C296.384 76.6015 296.533 75.8906 296.673 75.1874L298.736 65.5312H301.08L293.345 102H291.377L292.431 95.9765H292.291C291.587 97.039 290.752 98.0703 289.783 99.0703C288.814 100.055 287.712 100.867 286.478 101.508C285.259 102.148 283.916 102.469 282.447 102.469ZM283.056 100.406C283.947 100.406 284.845 100.219 285.752 99.8437C286.658 99.4531 287.525 98.914 288.353 98.2265C289.197 97.5234 289.978 96.6874 290.697 95.7187C291.416 94.7499 292.048 93.6796 292.595 92.5078C293.142 91.3359 293.564 90.0937 293.861 88.7812C294.173 87.4687 294.33 86.1093 294.33 84.7031C294.33 82.5624 293.791 80.9296 292.712 79.8046C291.65 78.6796 290.189 78.1171 288.33 78.1171C286.955 78.1171 285.712 78.414 284.603 79.0078C283.494 79.5859 282.509 80.3906 281.65 81.4218C280.806 82.4531 280.095 83.6249 279.517 84.9374C278.939 86.2499 278.502 87.6484 278.205 89.1328C277.908 90.6171 277.759 92.0937 277.759 93.5624C277.759 95.7499 278.197 97.4374 279.072 98.6249C279.962 99.8124 281.291 100.406 283.056 100.406ZM307.094 102.469C305.75 102.469 304.594 102.234 303.625 101.766C302.656 101.281 301.914 100.57 301.398 99.6328C300.898 98.6953 300.648 97.5468 300.648 96.1874C300.648 95.6406 300.688 95.0703 300.766 94.4765C300.859 93.8828 300.961 93.2734 301.07 92.6484L304.492 76.5234H306.883L303.391 92.9296C303.266 93.5234 303.172 94.0703 303.109 94.5703C303.047 95.0546 303.016 95.4999 303.016 95.9062C303.016 97.4218 303.414 98.5546 304.211 99.3046C305.008 100.039 306.164 100.406 307.68 100.406C309.195 100.406 310.68 99.9296 312.133 98.9765C313.602 98.0078 314.891 96.664 316 94.9453C317.125 93.2109 317.93 91.1874 318.414 88.8749L321.039 76.5234H323.383L317.969 102H316L317.055 96.0468H316.914C316.352 96.9687 315.602 97.9296 314.664 98.9296C313.742 99.914 312.648 100.75 311.383 101.437C310.133 102.125 308.703 102.469 307.094 102.469ZM324.123 102L331.834 65.5312H334.202L332.139 75.1406C331.967 75.9374 331.78 76.7578 331.577 77.6015C331.389 78.4453 331.194 79.2812 330.991 80.1093C330.788 80.9218 330.592 81.7109 330.405 82.4765H330.545C331.123 81.5234 331.873 80.5546 332.795 79.5703C333.717 78.5859 334.811 77.7578 336.077 77.0859C337.358 76.3984 338.788 76.0546 340.366 76.0546C341.741 76.0546 342.905 76.2968 343.858 76.7812C344.827 77.2499 345.569 77.9531 346.084 78.8906C346.6 79.8281 346.858 80.9999 346.858 82.4062C346.858 82.9218 346.811 83.4765 346.717 84.0703C346.639 84.6484 346.538 85.2499 346.413 85.8749L342.991 102H340.623L344.092 85.5937C344.233 84.9999 344.327 84.4609 344.373 83.9765C344.436 83.4765 344.467 83.039 344.467 82.664C344.467 81.1328 344.069 79.9921 343.272 79.2421C342.475 78.4921 341.327 78.1171 339.827 78.1171C338.311 78.1171 336.819 78.6015 335.35 79.5703C333.897 80.5234 332.616 81.8671 331.506 83.6015C330.397 85.3203 329.592 87.3281 329.092 89.6249L326.491 102H324.123ZM350.247 102.492C349.731 102.492 349.333 102.352 349.052 102.07C348.77 101.789 348.63 101.391 348.63 100.875C348.63 100.219 348.809 99.6093 349.169 99.0468C349.544 98.4843 350.122 98.2031 350.903 98.2031C351.403 98.2031 351.786 98.3515 352.052 98.6484C352.317 98.9453 352.45 99.3359 352.45 99.8203C352.45 100.461 352.263 101.07 351.888 101.648C351.528 102.211 350.981 102.492 350.247 102.492Z" fill="#E8EAEA"/>
</svg>
