<svg width="462" height="92" viewBox="0 0 462 92" fill="none" xmlns="http://www.w3.org/2000/svg">
<path d="M41.053 6.68062C38.9355 10.3565 37.2057 13.3762 37.2057 13.3911C37.2057 13.406 38.503 13.4209 40.0837 13.4209C42.3578 13.4209 42.9543 13.4433 42.9245 13.5178C42.8797 13.6371 32.4711 31.6435 32.24 32.0014L32.061 32.2847H29.1681L26.2826 32.2922L22.4353 38.9802L18.5879 45.6683L21.4734 45.7056L24.3589 45.7429L18.916 55.1599L13.4656 64.5694H10.5801H7.69464L3.84732 71.25C1.7298 74.9259 0 77.9456 0 77.9605C0 77.9754 13.3985 77.9903 29.772 77.9903H59.5366L63.3913 71.2948L67.2461 64.6067L41.3662 64.5843C18.3792 64.5694 15.5011 64.5545 15.5384 64.4576C15.5608 64.3979 18.0064 60.148 20.9664 55.0257L26.3571 45.7056H40.6429H54.9287L58.7611 39.0548C60.8712 35.4013 62.6085 32.3816 62.6159 32.3443C62.6308 32.3145 56.2335 32.2847 48.3972 32.2847C39.6513 32.2847 34.1487 32.2549 34.1487 32.2176C34.1487 32.1803 36.5868 27.9304 39.5618 22.7857L44.9749 13.4209H70.8623H96.7422L100.358 7.1429C102.349 3.69074 104.086 0.671043 104.221 0.432449L104.467 0H74.6873H44.9003L41.053 6.68062Z" fill="#E8EAEA"/>
<path d="M120.527 18.4985C117.343 18.7221 114.637 19.4155 111.468 20.8173C107.218 22.6962 103.348 25.8352 100.306 29.8764C98.2707 32.5904 96.9659 35.5579 96.6975 38.1004C96.5559 39.4947 96.8094 42.3205 97.2642 44.3262C97.4804 45.2731 101.507 58.366 101.701 58.7537C101.961 59.2681 102.297 60.3344 102.297 60.6475C102.297 60.819 102.245 61.1471 102.185 61.3857C101.663 63.3988 100.344 64.2562 97.4058 64.4874C96.7348 64.5396 93.5362 64.5694 88.5182 64.5694C84.2012 64.5694 80.6745 64.5843 80.6745 64.6067C80.6745 64.629 79.7872 67.5518 78.7061 71.1084C77.6249 74.6723 76.7078 77.6771 76.6855 77.789L76.6333 77.9977L86.7959 77.9679C97.7115 77.9381 97.6072 77.9381 99.8365 77.5429C102.961 76.9837 106.502 75.6118 109.358 73.8447C111.095 72.7785 113.645 70.6983 115.039 69.2145C115.845 68.3645 117.47 66.2246 118.216 65.054C120.102 62.0492 121.109 58.9326 120.989 56.4796C120.863 54.0638 120.631 53.1765 117.91 44.9973C115.375 37.3474 114.928 35.8636 114.995 35.1926C115.121 33.843 116.106 32.6948 117.537 32.225C118.775 31.815 118.693 31.8224 127.387 31.8373L135.439 31.8448L137.445 25.2611C138.548 21.6375 139.465 18.6177 139.488 18.5432C139.518 18.4239 139.055 18.4164 130.473 18.4239C125.493 18.4313 121.019 18.4686 120.527 18.4985Z" fill="#E8EAEA"/>
<path d="M152.983 25.112L147.339 31.8001L155.623 31.8224C162.191 31.8373 163.891 31.8597 163.862 31.9343C163.847 31.979 157.919 42.3056 150.694 54.8691C143.469 67.44 137.519 77.7815 137.482 77.8561C137.415 77.9828 137.676 77.9903 145.222 77.9903H153.035L166.3 54.9138L179.564 31.8373L187.878 31.8224L196.184 31.8001L198.189 25.1642C199.293 21.5107 200.195 18.5059 200.195 18.4686C200.195 18.4388 190.845 18.4164 179.415 18.4239H158.627L152.983 25.112Z" fill="#E8EAEA"/>
<path d="M218.589 18.4686C218.418 18.7445 184.388 77.9456 184.388 77.9605C184.388 77.9754 187.907 77.9903 192.21 77.9903H200.031L217.016 48.442C226.358 32.1952 234.068 18.7892 234.142 18.655L234.284 18.4164H226.455C222.146 18.4164 218.604 18.4388 218.589 18.4686Z" fill="#E8EAEA"/>
<path d="M238.728 48.0841C229.341 64.4054 221.646 77.8039 221.624 77.871C221.579 77.9828 223.182 77.9903 240.353 77.9903H259.135L264.787 71.2948L270.438 64.6067L257.726 64.5843C247.623 64.5694 245.006 64.547 245.006 64.4725C245.013 64.4277 246.348 62.0642 247.973 59.2383L250.941 54.0937L260.045 54.0564L269.156 54.0191L274.793 47.3459L280.43 40.6728L269.581 40.6504C263.609 40.6429 258.725 40.6206 258.725 40.5982C258.725 40.5758 259.851 38.6 261.23 36.1991L263.735 31.8373L275.71 31.8224L287.684 31.8001L289.72 25.1269C290.838 21.4585 291.755 18.4463 291.755 18.4314C291.755 18.4239 283.658 18.4164 273.771 18.4164H255.78L238.728 48.0841Z" fill="#E8EAEA"/>
<path d="M313.616 18.655C313.333 19.1248 279.527 77.9306 279.527 77.9605C279.527 77.9754 283.047 77.9903 287.341 77.9903H295.163L305.512 59.9839C311.208 50.0823 315.891 41.9776 315.928 41.9776C316.01 41.9776 315.958 41.6495 317.255 50.1047C317.911 54.3919 318.463 57.9261 318.47 57.9559C318.478 57.9932 323.272 54.4143 329.11 50.0003C334.956 45.5863 339.765 41.9776 339.795 41.9776C339.832 41.9776 339.795 42.0894 339.713 42.2162C339.392 42.7455 319.253 77.789 319.216 77.8859C319.186 77.9754 320.297 77.9903 326.993 77.9903L334.814 77.9828L351.911 48.2481C361.305 31.897 369 18.491 369 18.4686C369 18.4388 365.667 18.4164 361.604 18.4164H354.2L342.717 27.1326C336.402 31.9194 331.22 35.8338 331.205 35.8189C331.183 35.7965 328.588 18.6252 328.588 18.4686C328.588 18.4388 325.255 18.4164 321.177 18.4164H313.766L313.616 18.655Z" fill="#E8EAEA"/>
<path d="M384.445 78.4687C381.68 78.4687 379.367 77.9218 377.508 76.8281C375.648 75.7187 374.242 74.164 373.289 72.164C372.352 70.1484 371.883 67.7734 371.883 65.039C371.883 63.0234 372.109 60.9843 372.562 58.9218C373.031 56.8593 373.734 54.8906 374.672 53.0156C375.609 51.1249 376.805 49.4453 378.258 47.9765C379.711 46.5078 381.43 45.3437 383.414 44.4843C385.398 43.6249 387.664 43.1953 390.211 43.1953C392.383 43.1953 394.227 43.3984 395.742 43.8046C397.258 44.2109 398.773 44.8281 400.289 45.6562L397.523 51.5156C396.414 50.8749 395.273 50.3359 394.102 49.8984C392.945 49.4609 391.648 49.2421 390.211 49.2421C388.664 49.2421 387.289 49.5546 386.086 50.1796C384.883 50.8046 383.844 51.6562 382.969 52.7343C382.109 53.7968 381.398 54.9999 380.836 56.3437C380.273 57.6718 379.852 59.0546 379.57 60.4921C379.305 61.9296 379.172 63.3203 379.172 64.664C379.172 67.2578 379.711 69.1953 380.789 70.4765C381.867 71.7421 383.57 72.3749 385.898 72.3749C387.195 72.3749 388.508 72.2109 389.836 71.8828C391.164 71.539 392.492 71.1015 393.82 70.5703V76.664C392.867 77.039 391.586 77.4374 389.977 77.8593C388.383 78.2656 386.539 78.4687 384.445 78.4687ZM397.233 77.9999L404.475 43.7343H413.944L415.467 69.3515H415.678L428.545 43.7343H438.459L431.217 77.9999H424.655L428.053 61.7812C428.288 60.7031 428.553 59.5468 428.85 58.3124C429.147 57.0781 429.452 55.8593 429.764 54.6562C430.077 53.4531 430.358 52.3828 430.608 51.4453H430.397L417.061 77.9999H410.475L409.045 51.4453H408.858C408.78 52.1328 408.647 53.0624 408.459 54.2343C408.272 55.4062 408.053 56.6796 407.803 58.0546C407.569 59.414 407.311 60.7499 407.03 62.0624L403.678 77.9999H397.233ZM445.13 78.4687C443.411 78.4687 441.833 78.2812 440.395 77.9062C438.973 77.5312 437.77 77.0156 436.786 76.3593V69.9374C438.208 70.7343 439.598 71.3593 440.958 71.8124C442.333 72.2499 443.739 72.4687 445.177 72.4687C445.973 72.4687 446.708 72.3984 447.38 72.2578C448.067 72.1015 448.661 71.8671 449.161 71.5546C449.661 71.2421 450.052 70.8515 450.333 70.3828C450.614 69.914 450.755 69.3671 450.755 68.7421C450.755 67.8515 450.575 67.1093 450.216 66.5156C449.872 65.9062 449.387 65.3437 448.762 64.8281C448.153 64.3124 447.442 63.7578 446.63 63.164C445.677 62.4765 444.747 61.6953 443.841 60.8203C442.95 59.9453 442.216 58.9296 441.637 57.7734C441.059 56.6015 440.77 55.2343 440.77 53.6718C440.77 52.1406 441.044 50.7421 441.591 49.4765C442.153 48.2109 442.95 47.1093 443.981 46.1718C445.012 45.2343 446.247 44.5156 447.684 44.0156C449.137 43.4999 450.755 43.2421 452.536 43.2421C454.302 43.2421 455.934 43.4374 457.434 43.8281C458.95 44.2031 460.419 44.7812 461.841 45.5624L459.286 51.0234C458.067 50.4453 456.903 50.0156 455.794 49.7343C454.7 49.4374 453.614 49.289 452.536 49.289C451.895 49.289 451.302 49.3828 450.755 49.5703C450.223 49.7421 449.755 49.9999 449.348 50.3437C448.958 50.6718 448.653 51.0703 448.434 51.539C448.216 52.0078 448.106 52.539 448.106 53.1328C448.106 53.9453 448.27 54.6406 448.598 55.2187C448.942 55.7968 449.427 56.3359 450.052 56.8359C450.692 57.3203 451.458 57.8593 452.348 58.4531C453.614 59.2812 454.661 60.1718 455.489 61.1249C456.333 62.0624 456.958 63.0859 457.364 64.1953C457.786 65.3046 457.997 66.5312 457.997 67.8749C457.997 69.6718 457.661 71.2343 456.989 72.5624C456.317 73.8906 455.387 74.9921 454.2 75.8671C453.028 76.7421 451.661 77.3984 450.098 77.8359C448.552 78.2578 446.895 78.4687 445.13 78.4687Z" fill="#E8EAEA"/>
</svg>
